<svg version="1.1" id="Layer_1" xmlns="http://www.w3.org/2000/svg" xmlns:xlink="http://www.w3.org/1999/xlink" x="0px" y="0px" viewBox="0 0 512 512" style="enable-background:new 255 255 512 512;" xml:space="preserve">
<g>
	<g>
		<g>
			<path d="M158.451,216.381h32.863c4.262,0,7.717,3.455,7.717,7.717v32.863c0,4.262,3.455,7.717,7.717,7.717h37.817
				c4.262-0.002,7.717-3.456,7.717-7.719v-32.863c0-4.262,3.455-7.717,7.717-7.717h32.863c4.262,0,7.717-3.455,7.717-7.717v-37.819
				c0-4.262-3.455-7.717-7.717-7.717H260c-4.262,0-7.717-3.455-7.717-7.717v-32.862c0-4.262-3.455-7.717-7.717-7.717h-37.817
				c-4.262,0-7.717,3.455-7.717,7.717v32.863c0,4.262-3.455,7.717-7.717,7.717h-32.863c-4.262,0-7.717,3.455-7.717,7.717v37.819
				C150.734,212.926,154.189,216.381,158.451,216.381z" fill="#F50C39"></path>
			<path d="M464.104,0H108.575c-2.221,0-4.4,0.611-6.297,1.767C32.753,44.08,42.521,38.129,41.482,38.781
				c-3.631,2.272-5.701,6.209-5.701,10.264v450.841c0,6.692,5.424,12.114,12.114,12.114h355.528c2.26,0,4.493-0.665,6.297-1.767
				l60.682-36.932c3.611-2.197,5.816-6.12,5.816-10.347V12.114C476.217,5.411,470.677,0,464.104,0z M391.309,487.773H60.008V61.159
				h331.301V487.773z M400.025,36.932H91.098l20.874-12.705H420.9L400.025,36.932z M451.99,456.147l-36.455,22.186V55.853
				l33.29-20.26l3.166-1.927V456.147z" fill="#F50C39"></path>
			<path d="M118.087,335.501h215.14c6.692,0,12.114-5.422,12.114-12.114s-5.422-12.114-12.114-12.114h-215.14
				c-6.69,0-12.114,5.422-12.114,12.114S111.397,335.501,118.087,335.501z" fill="#F50C39"></path>
			<path d="M289.601,365.511H161.712c-6.69,0-12.114,5.422-12.114,12.114c0,6.692,5.424,12.114,12.114,12.114h127.889
				c6.692,0,12.114-5.422,12.114-12.114S296.292,365.511,289.601,365.511z" fill="#F50C39"></path>
			<path d="M289.601,419.748H161.712c-6.69,0-12.114,5.422-12.114,12.114s5.424,12.114,12.114,12.114h127.889
				c6.692,0,12.114-5.422,12.114-12.114S296.292,419.748,289.601,419.748z" fill="#F50C39"></path>
		</g>
	</g>
</g>
<g>
</g>
<g>
</g>
<g>
</g>
<g>
</g>
<g>
</g>
<g>
</g>
<g>
</g>
<g>
</g>
<g>
</g>
<g>
</g>
<g>
</g>
<g>
</g>
<g>
</g>
<g>
</g>
<g>
</g>
</svg>