<?xml version="1.0" encoding="iso-8859-1"?>
<!-- Generator: Adobe Illustrator 19.0.0, SVG Export Plug-In . SVG Version: 6.00 Build 0)  -->
<svg xmlns="http://www.w3.org/2000/svg" xmlns:xlink="http://www.w3.org/1999/xlink" version="1.1" id="Capa_1" x="0px" y="0px" viewBox="0 0 512 512" style="enable-background:new 0 0 512 512;" xml:space="preserve" width="512px" height="512px">
<g>
	<g>
		<path d="M437.311,75.279C389.16,26.976,325.086,0.245,256.892,0.011c-0.017,0-0.034,0-0.051,0c-4.141,0-8.099,1.712-10.935,4.732    c-2.848,3.032-4.308,7.111-4.032,11.263c2.02,30.386-9.145,60.139-30.631,81.627c-18.379,18.378-42.791,29.288-68.739,30.721    c-7.633,0.422-13.728,6.517-14.15,14.149c-1.436,25.952-12.345,50.364-30.72,68.739c-19.904,19.903-46.391,30.865-74.582,30.867    c-2.338,0-4.709-0.079-7.047-0.233c-4.152-0.282-8.228,1.184-11.261,4.032c-3.032,2.848-4.746,6.826-4.731,10.985    C0.246,325.087,26.976,389.16,75.28,437.311C123.595,485.474,187.776,511.999,256,512c68.38-0.001,132.667-26.63,181.019-74.981    C485.372,388.667,512,324.38,512,256C512,187.776,485.475,123.595,437.311,75.279z M256,482    c-119.108-0.002-217.234-92.935-225.435-210.095c33.378-1.81,64.486-15.656,88.281-39.45c20.549-20.549,33.83-46.976,38.14-75.468    c28.489-4.308,54.915-17.589,75.469-38.142c23.682-23.685,37.603-55.174,39.442-88.282C389.06,38.766,482,136.894,482,256    C482,380.615,380.617,481.998,256,482z" fill="#f50c39"/>
	</g>
</g>
<g>
	<g>
		<path d="M25.61,72.56c-2.8-2.79-6.66-4.39-10.61-4.39s-7.81,1.6-10.61,4.39C1.6,75.35,0,79.22,0,83.17c0,3.939,1.6,7.81,4.39,10.6    c2.8,2.79,6.66,4.4,10.61,4.4s7.81-1.61,10.61-4.4C28.4,90.98,30,87.11,30,83.17C30,79.22,28.4,75.35,25.61,72.56z" fill="#f50c39"/>
	</g>
</g>
<g>
	<g>
		<path d="M93.77,4.39C90.98,1.6,87.11,0,83.17,0c-3.95,0-7.82,1.6-10.61,4.39c-2.79,2.8-4.39,6.66-4.39,10.61s1.6,7.81,4.39,10.609    C75.35,28.399,79.22,30,83.17,30c3.94,0,7.81-1.601,10.6-4.391c2.79-2.8,4.4-6.659,4.4-10.609S96.56,7.189,93.77,4.39z" fill="#f50c39"/>
	</g>
</g>
<g>
	<g>
		<path d="M220.33,358.17c-2.79-2.8-6.66-4.4-10.61-4.4c-3.95,0-7.81,1.601-10.61,4.4c-2.79,2.79-4.39,6.649-4.39,10.6    c0,3.951,1.6,7.82,4.39,10.61c2.8,2.79,6.66,4.39,10.61,4.39c3.95,0,7.81-1.6,10.61-4.39c2.79-2.79,4.39-6.66,4.39-10.61    C224.72,364.82,223.12,360.96,220.33,358.17z" fill="#f50c39"/>
	</g>
</g>
<g>
	<g>
		<path d="M299.85,278.64c-2.79-2.79-6.66-4.39-10.6-4.39c-3.95,0-7.82,1.6-10.61,4.39c-2.79,2.8-4.4,6.66-4.4,10.61    c0,3.95,1.61,7.81,4.4,10.6c2.79,2.8,6.66,4.4,10.61,4.4c3.94,0,7.81-1.601,10.6-4.4c2.79-2.79,4.39-6.649,4.39-10.6    C304.24,285.299,302.64,281.44,299.85,278.64z" fill="#f50c39"/>
	</g>
</g>
<g>
	<g>
		<path d="M195.38,265.05c-2.79-2.79-6.66-4.39-10.61-4.39s-7.81,1.6-10.6,4.39c-2.8,2.79-4.4,6.66-4.4,10.61    c0,3.949,1.6,7.81,4.4,10.609c2.79,2.79,6.66,4.391,10.6,4.391c3.95,0,7.81-1.601,10.61-4.391c2.79-2.799,4.39-6.66,4.39-10.609    C199.77,271.71,198.17,267.84,195.38,265.05z" fill="#f50c39"/>
	</g>
</g>
<g>
	<g>
		<path d="M379.38,199.11c-2.79-2.79-6.66-4.39-10.61-4.39c-3.94,0-7.81,1.6-10.6,4.39c-2.8,2.801-4.4,6.66-4.4,10.61    c0,3.95,1.6,7.81,4.4,10.61c2.79,2.79,6.66,4.39,10.6,4.39c3.95,0,7.82-1.6,10.61-4.39c2.79-2.79,4.39-6.66,4.39-10.61    C383.77,205.77,382.17,201.911,379.38,199.11z" fill="#f50c39"/>
	</g>
</g>
<g>
	<g>
		<path d="M286.26,174.161c-2.79-2.79-6.65-4.391-10.6-4.391s-7.82,1.601-10.61,4.391c-2.79,2.8-4.39,6.659-4.39,10.609    c0,3.95,1.6,7.82,4.39,10.61c2.79,2.79,6.66,4.39,10.61,4.39c3.94,0,7.81-1.6,10.6-4.39c2.8-2.79,4.4-6.66,4.4-10.61    C290.66,180.82,289.06,176.961,286.26,174.161z" fill="#f50c39"/>
	</g>
</g>
<g>
	<g>
		<path d="M404.33,292.23c-2.79-2.79-6.66-4.39-10.61-4.39s-7.81,1.6-10.61,4.39c-2.79,2.79-4.39,6.66-4.39,10.61    c0,3.95,1.6,7.81,4.39,10.6c2.8,2.79,6.66,4.4,10.61,4.4s7.82-1.61,10.61-4.4c2.789-2.79,4.39-6.65,4.39-10.6    S407.12,295.02,404.33,292.23z" fill="#f50c39"/>
	</g>
</g>
<g>
	<g>
		<path d="M313.44,383.11c-2.79-2.791-6.65-4.39-10.6-4.39s-7.82,1.6-10.61,4.39c-2.79,2.801-4.39,6.66-4.39,10.61    c0,3.95,1.6,7.82,4.39,10.61c2.79,2.79,6.66,4.39,10.61,4.39s7.81-1.6,10.6-4.39c2.8-2.801,4.4-6.66,4.4-10.61    C317.84,389.78,316.24,385.91,313.44,383.11z" fill="#f50c39"/>
	</g>
</g>
<g>
</g>
<g>
</g>
<g>
</g>
<g>
</g>
<g>
</g>
<g>
</g>
<g>
</g>
<g>
</g>
<g>
</g>
<g>
</g>
<g>
</g>
<g>
</g>
<g>
</g>
<g>
</g>
<g>
</g>
</svg>
